<?xml version="1.0" encoding="UTF-8"?><svg id="a" xmlns="http://www.w3.org/2000/svg" viewBox="0 0 114.39 24.76"><g><path d="M20.09,15.52c-.1-2.78-.21-6.15-.21-9.51h-.1c-.72,2.95-1.68,6.25-2.57,8.96l-2.82,9.03h-4.09l-2.47-8.96c-.76-2.71-1.55-6.01-2.09-9.03h-.07c-.14,3.12-.24,6.7-.41,9.58l-.41,8.79H0L1.48,1.24h6.97l2.27,7.72c.72,2.68,1.44,5.56,1.96,8.27h.1c.65-2.68,1.44-5.73,2.2-8.31l2.47-7.69h6.83l1.27,23.14h-5.12l-.34-8.86Z"/><path d="M33.51,17.65c.17,2.16,2.3,3.19,4.74,3.19,1.78,0,3.23-.24,4.63-.69l.69,3.54c-1.72,.69-3.81,1.03-6.08,1.03-5.7,0-8.96-3.3-8.96-8.55,0-4.26,2.64-8.96,8.48-8.96,5.42,0,7.49,4.22,7.49,8.38,0,.89-.1,1.68-.17,2.06h-10.82Zm6.15-3.57c0-1.27-.55-3.4-2.95-3.4-2.2,0-3.09,1.99-3.23,3.4h6.18Z"/><path d="M63.9,0V19.36c0,1.89,.07,3.88,.14,5.01h-4.63l-.24-2.47h-.07c-1.06,1.89-3.09,2.85-5.25,2.85-3.98,0-7.18-3.4-7.18-8.62-.03-5.67,3.5-8.93,7.52-8.93,2.06,0,3.67,.72,4.43,1.89h.07V0h5.22Zm-5.22,14.7c0-.27-.03-.65-.07-.93-.31-1.41-1.44-2.58-3.06-2.58-2.37,0-3.6,2.13-3.6,4.77,0,2.85,1.41,4.63,3.57,4.63,1.51,0,2.71-1.03,3.02-2.51,.1-.38,.14-.76,.14-1.2v-2.2Z"/><path d="M73.48,2.92c0,1.44-1.1,2.61-2.81,2.61s-2.75-1.17-2.71-2.61c-.03-1.51,1.06-2.64,2.75-2.64s2.75,1.13,2.78,2.64Zm-5.39,21.46V7.59h5.22V24.38h-5.22Z"/><path d="M93.32,18.99c0,2.2,.07,3.98,.14,5.39h-4.53l-.24-2.37h-.1c-.65,1.03-2.23,2.75-5.25,2.75-3.4,0-5.91-2.13-5.91-7.31V7.59h5.25v9.03c0,2.44,.79,3.91,2.61,3.91,1.44,0,2.27-1,2.61-1.82,.14-.31,.17-.72,.17-1.13V7.59h5.25v11.4Z"/><path d="M97.48,19.81c.96,.58,2.95,1.27,4.5,1.27s2.23-.55,2.23-1.41-.52-1.27-2.47-1.92c-3.47-1.17-4.81-3.06-4.77-5.05,0-3.12,2.68-5.49,6.83-5.49,1.96,0,3.71,.45,4.74,.96l-.93,3.6c-.76-.41-2.2-.96-3.64-.96-1.27,0-1.99,.52-1.99,1.37,0,.79,.65,1.2,2.71,1.92,3.19,1.1,4.53,2.71,4.57,5.18,0,3.12-2.47,5.42-7.28,5.42-2.2,0-4.15-.48-5.42-1.17l.93-3.74Z"/></g><path d="M114.39,2.89c0,1.48-1.16,2.64-2.67,2.64s-2.69-1.16-2.69-2.64,1.19-2.61,2.69-2.61,2.67,1.16,2.67,2.61Zm-4.7,0c0,1.16,.86,2.09,2.04,2.09s1.99-.92,1.99-2.07-.84-2.1-2.01-2.1-2.02,.94-2.02,2.08Zm1.61,1.37h-.6V1.64c.24-.05,.57-.08,1-.08,.49,0,.72,.08,.91,.19,.14,.11,.25,.32,.25,.57,0,.29-.22,.51-.54,.61v.03c.26,.1,.4,.29,.48,.64,.08,.4,.13,.56,.19,.65h-.65c-.08-.1-.13-.33-.21-.64-.05-.29-.21-.41-.54-.41h-.29v1.05Zm.02-1.48h.29c.33,0,.61-.11,.61-.38,0-.24-.17-.4-.56-.4-.16,0-.27,.02-.33,.03v.75Z"/></svg>