<?xml version="1.0" encoding="UTF-8"?><svg id="a" xmlns="http://www.w3.org/2000/svg" xmlns:xlink="http://www.w3.org/1999/xlink" viewBox="0 0 39.71 47.31"><defs><style>.h{fill:url(#e);}.i{fill:url(#d);}.j{fill:url(#g);}.k{fill:url(#f);}.l{fill:url(#c);}.m{fill:url(#b);}.n{fill:#fff;}</style><linearGradient id="b" x1="0" y1="30.08" x2="19.83" y2="30.08" gradientTransform="matrix(1, 0, 0, 1, 0, 0)" gradientUnits="userSpaceOnUse"><stop offset=".08" stop-color="#ff008d"/><stop offset="1" stop-color="#ffb302"/></linearGradient><linearGradient id="c" x1="19.85" y1="21.1" x2="39.6" y2="21.1" xlink:href="#b"/><linearGradient id="d" x1=".11" y1="21.1" x2="19.85" y2="21.1" gradientTransform="matrix(1, 0, 0, 1, 0, 0)" gradientUnits="userSpaceOnUse"><stop offset="0" stop-color="#00abff"/><stop offset="1" stop-color="#3d0082"/></linearGradient><linearGradient id="e" x1="14.18" y1="30.08" x2="39.71" y2="30.08" xlink:href="#d"/><linearGradient id="f" x1=".11" y1="9.13" x2="39.6" y2="9.13" gradientTransform="matrix(1, 0, 0, 1, 0, 0)" gradientUnits="userSpaceOnUse"><stop offset="0" stop-color="#360072"/><stop offset="1" stop-color="#c20097"/></linearGradient><linearGradient id="g" x1="14.34" y1="24.61" x2="25.37" y2="24.61" xlink:href="#f"/></defs><polygon class="n" points=".11 12.85 .11 12.86 .11 12.86 .11 12.85"/><g><path class="m" d="M14.34,30.18C6.65,27.94,.88,21.13,.11,12.86c0,0-.11,.28-.11,.43v20.65c0,.42,.17,.84,.59,1l18.56,12.2c.17,.08,.42,.17,.67,.17h.02c-3.49-3.75-5.65-8.87-5.65-14.52,0-.89,.06-1.76,.16-2.62Z"/><path class="l" d="M34.01,12.02c-5.55,0-10.56,2.39-14.16,6.23,2.96,3.16,4.96,7.31,5.51,11.93,7.69-2.24,13.46-9.05,14.23-17.32-1.77-.54-3.64-.84-5.58-.84Z"/></g><g><path class="i" d="M5.69,12.02c-1.94,0-3.81,.3-5.58,.84,.77,8.28,6.54,15.08,14.23,17.32,.55-4.62,2.55-8.77,5.51-11.93-3.6-3.85-8.61-6.23-14.16-6.23Z"/><path class="h" d="M39.6,12.86h0c-.77,8.27-6.54,15.08-14.23,17.32-1.75,.51-3.6,.79-5.51,.79s-3.76-.28-5.51-.79c-.1,.86-.16,1.73-.16,2.62,0,5.65,2.16,10.77,5.65,14.52,.02,0,.04,0,.05,0,.23-.01,.45-.09,.6-.16l18.64-12.2c.33-.25,.59-.59,.59-1V13.29c0-.16-.04-.3-.11-.43Z"/></g><g><path class="k" d="M39.12,12.29L20.48,.17c-.17-.08-.42-.17-.67-.17s-.42,.08-.59,.17L.59,12.29c-.21,.15-.37,.35-.48,.56h0c1.77-.54,3.64-.83,5.58-.83,5.55,0,10.56,2.39,14.16,6.23,3.6-3.85,8.61-6.23,14.16-6.23,1.94,0,3.81,.3,5.58,.84h0c-.1-.22-.27-.42-.48-.57Z"/><path class="j" d="M19.85,30.97c1.91,0,3.76-.28,5.51-.79-.55-4.62-2.55-8.77-5.51-11.93-2.96,3.16-4.96,7.31-5.51,11.93,1.75,.51,3.6,.79,5.51,.79Z"/></g></svg>